<mxfile host="app.diagrams.net" modified="2023-04-06T15:01:16.745Z" agent="5.0 (Windows NT 10.0; Win64; x64) AppleWebKit/537.36 (KHTML, like Gecko) Chrome/111.0.0.0 Safari/537.36" etag="ZqIDC-OJO6IV_rgLkBWc" version="21.0.8" type="github">
  <diagram name="ページ1" id="R_Mem6Oow-wRLCAeTZvM">
    <mxGraphModel dx="880" dy="452" grid="1" gridSize="10" guides="1" tooltips="1" connect="1" arrows="1" fold="1" page="1" pageScale="1" pageWidth="827" pageHeight="1169" math="0" shadow="0">
      <root>
        <mxCell id="0" />
        <mxCell id="1" parent="0" />
        <mxCell id="rQUQOKu9-2_MoRBNp-SZ-9" value="" style="fillColor=#EFF0F3;strokeColor=none;dashed=0;verticalAlign=top;fontStyle=0;fontColor=#232F3D;whiteSpace=wrap;html=1;" vertex="1" parent="1">
          <mxGeometry x="350" y="320" width="410" height="360" as="geometry" />
        </mxCell>
        <mxCell id="rQUQOKu9-2_MoRBNp-SZ-1" value="" style="strokeColor=#dddddd;shadow=1;strokeWidth=1;rounded=1;absoluteArcSize=1;arcSize=2;" vertex="1" parent="1">
          <mxGeometry x="350" y="320" width="170" height="60" as="geometry" />
        </mxCell>
        <mxCell id="rQUQOKu9-2_MoRBNp-SZ-2" value="&lt;font color=&quot;#000000&quot;&gt;Name&lt;/font&gt;&lt;br&gt;Compute Engine" style="editableCssRules=.*;html=1;fontColor=#999999;shape=image;verticalLabelPosition=middle;labelBackgroundColor=#ffffff;verticalAlign=middle;labelPosition=right;align=left;spacingLeft=20;part=1;points=[];imageAspect=0;image=data:image/svg+xml,PHN2ZyB4bWxucz0iaHR0cDovL3d3dy53My5vcmcvMjAwMC9zdmciIHhtbG5zOnY9Imh0dHBzOi8vdmVjdGEuaW8vbmFubyIgd2lkdGg9IjIwIiBoZWlnaHQ9IjIwIiB2aWV3Qm94PSIwIDAgMjAgMjAiPiYjeGE7CTxzdHlsZSB0eXBlPSJ0ZXh0L2NzcyI+JiN4YTsJLnN0MHtmaWxsOiM0Mjg1ZjQ7fSYjeGE7CS5zdDF7ZmlsbDojNjY5ZGY2O30mI3hhOwkuc3Qye2ZpbGw6I2FlY2JmYTt9JiN4YTsJPC9zdHlsZT4mI3hhOwk8cGF0aCBjbGFzcz0ic3QyIiBkPSJNNyA3aDZ2Nkg3eiIvPiYjeGE7CTxwYXRoIGNsYXNzPSJzdDEiIGQ9Ik05IDBoMnY0SDl6TTUgMGgydjRINXptOCAwaDJ2NGgtMnoiLz4mI3hhOwk8cGF0aCBjbGFzcz0ic3QwIiBkPSJNOSAxNmgydjRIOXptLTQgMGgydjRINXptOCAwaDJ2NGgtMnptMy01VjloNHYyem0wIDR2LTJoNHYyem0wLThWNWg0djJ6Ii8+JiN4YTsJPHBhdGggY2xhc3M9InN0MSIgZD0iTTAgMTFWOWg0djJ6bTAgNHYtMmg0djJ6bTAtOFY1aDR2MnoiLz4mI3hhOwk8cGF0aCBjbGFzcz0ic3QyIiBkPSJNMyAzdjE0aDE0VjN6bTEyIDEySDVWNWgxMHoiLz4mI3hhOwk8cGF0aCBjbGFzcz0ic3QxIiBkPSJNMTAgMTBsLTMgM2g2eiIvPiYjeGE7CTxwYXRoIGNsYXNzPSJzdDAiIGQ9Ik0xMyA3bC0zIDMgMyAzeiIvPiYjeGE7PC9zdmc+;" vertex="1" parent="rQUQOKu9-2_MoRBNp-SZ-1">
          <mxGeometry width="30" height="30" relative="1" as="geometry">
            <mxPoint x="15" y="15" as="offset" />
          </mxGeometry>
        </mxCell>
        <mxCell id="rQUQOKu9-2_MoRBNp-SZ-10" value="" style="group" vertex="1" connectable="0" parent="1">
          <mxGeometry x="420" y="490" width="50" height="101" as="geometry" />
        </mxCell>
        <mxCell id="rQUQOKu9-2_MoRBNp-SZ-3" value="" style="image;sketch=0;aspect=fixed;html=1;points=[];align=center;fontSize=12;image=img/lib/mscae/WebAppWordPress.svg;" vertex="1" parent="rQUQOKu9-2_MoRBNp-SZ-10">
          <mxGeometry width="49" height="50" as="geometry" />
        </mxCell>
        <mxCell id="rQUQOKu9-2_MoRBNp-SZ-4" value="WordPress" style="image;sketch=0;aspect=fixed;html=1;points=[];align=center;fontSize=12;image=img/lib/mscae/Docker.svg;" vertex="1" parent="rQUQOKu9-2_MoRBNp-SZ-10">
          <mxGeometry y="60" width="50" height="41" as="geometry" />
        </mxCell>
        <mxCell id="rQUQOKu9-2_MoRBNp-SZ-11" value="" style="group" vertex="1" connectable="0" parent="1">
          <mxGeometry x="580" y="470" width="60" height="121" as="geometry" />
        </mxCell>
        <mxCell id="rQUQOKu9-2_MoRBNp-SZ-5" value="MySQL" style="image;sketch=0;aspect=fixed;html=1;points=[];align=center;fontSize=12;image=img/lib/mscae/Docker.svg;" vertex="1" parent="rQUQOKu9-2_MoRBNp-SZ-11">
          <mxGeometry y="80" width="50" height="41" as="geometry" />
        </mxCell>
        <mxCell id="rQUQOKu9-2_MoRBNp-SZ-7" value="" style="outlineConnect=0;dashed=0;verticalLabelPosition=bottom;verticalAlign=top;align=center;html=1;shape=mxgraph.aws3.mysql_db_instance;fillColor=#2E73B8;gradientColor=none;" vertex="1" parent="rQUQOKu9-2_MoRBNp-SZ-11">
          <mxGeometry width="60" height="64.5" as="geometry" />
        </mxCell>
        <mxCell id="rQUQOKu9-2_MoRBNp-SZ-13" style="edgeStyle=orthogonalEdgeStyle;rounded=0;orthogonalLoop=1;jettySize=auto;html=1;entryX=0;entryY=0.5;entryDx=0;entryDy=0;" edge="1" parent="1" source="rQUQOKu9-2_MoRBNp-SZ-12" target="rQUQOKu9-2_MoRBNp-SZ-9">
          <mxGeometry relative="1" as="geometry">
            <mxPoint x="340" y="531" as="targetPoint" />
          </mxGeometry>
        </mxCell>
        <mxCell id="rQUQOKu9-2_MoRBNp-SZ-12" value="" style="sketch=0;outlineConnect=0;fontColor=#232F3E;gradientColor=none;fillColor=#232F3D;strokeColor=none;dashed=0;verticalLabelPosition=bottom;verticalAlign=top;align=center;html=1;fontSize=12;fontStyle=0;aspect=fixed;pointerEvents=1;shape=mxgraph.aws4.internet;" vertex="1" parent="1">
          <mxGeometry x="210" y="476" width="78" height="48" as="geometry" />
        </mxCell>
        <mxCell id="rQUQOKu9-2_MoRBNp-SZ-17" style="edgeStyle=orthogonalEdgeStyle;rounded=0;orthogonalLoop=1;jettySize=auto;html=1;" edge="1" parent="1" source="rQUQOKu9-2_MoRBNp-SZ-14" target="rQUQOKu9-2_MoRBNp-SZ-12">
          <mxGeometry relative="1" as="geometry" />
        </mxCell>
        <mxCell id="rQUQOKu9-2_MoRBNp-SZ-14" value="" style="sketch=0;outlineConnect=0;fontColor=#232F3E;gradientColor=none;fillColor=#232F3D;strokeColor=none;dashed=0;verticalLabelPosition=bottom;verticalAlign=top;align=center;html=1;fontSize=12;fontStyle=0;aspect=fixed;pointerEvents=1;shape=mxgraph.aws4.mobile_client;" vertex="1" parent="1">
          <mxGeometry x="30" y="380" width="41" height="78" as="geometry" />
        </mxCell>
        <mxCell id="rQUQOKu9-2_MoRBNp-SZ-16" style="edgeStyle=orthogonalEdgeStyle;rounded=0;orthogonalLoop=1;jettySize=auto;html=1;" edge="1" parent="1" source="rQUQOKu9-2_MoRBNp-SZ-15" target="rQUQOKu9-2_MoRBNp-SZ-12">
          <mxGeometry relative="1" as="geometry" />
        </mxCell>
        <mxCell id="rQUQOKu9-2_MoRBNp-SZ-15" value="" style="sketch=0;outlineConnect=0;fontColor=#232F3E;gradientColor=none;fillColor=#232F3D;strokeColor=none;dashed=0;verticalLabelPosition=bottom;verticalAlign=top;align=center;html=1;fontSize=12;fontStyle=0;aspect=fixed;pointerEvents=1;shape=mxgraph.aws4.client;" vertex="1" parent="1">
          <mxGeometry x="12" y="570" width="78" height="76" as="geometry" />
        </mxCell>
      </root>
    </mxGraphModel>
  </diagram>
</mxfile>
